# xmcd CD database file
#
# Track frame offsets:
#	150
#	11533
#	23598
#	35232
#	47505
#	61578
#	75766
#	88683
#	100182
#	113112
#	126083
#	137897
#	151388
#	164837
#	177564
#	189284
#	201004
#	214039
#	226612
#
# Disc length: 3205 seconds
#
# Revision: 2
# Processed by: cddbd v1.5.2PL0 Copyright (c) Steve Scherf et al.
# Submitted via: CDex 1.70beta2
#
DISCID=ed0c8313
DTITLE=Earl  'Fatha' Hines - The Ultimate Jazz Archive Set 20
DYEAR=2005
DGENRE=Jazz
TTITLE0=Angry
TTITLE1=Grand Terrace Shuffle
TTITLE2=Piano Man
TTITLE3=G.T. Stomp
TTITLE4=Father Steps In
TTITLE5=Rosetta
TTITLE6=Boogie Woogie On St. Louis Blues
TTITLE7=Deep Forest
TTITLE8=Number 19
TTITLE9=Body And Soul
TTITLE10=Child Of A Disordered Brain
TTITLE11=Tantalizing A Cuban
TTITLE12=Blues In Thirds
TTITLE13=Up Jumped The Devil
TTITLE14=On The Sunny Side Of The Street
TTITLE15=My Melancholy Baby
TTITLE16=Windy City Jive
TTITLE17=The Earl
TTITLE18=Second Balcony Jump
EXTD=YEAR: 2005
EXTT0=
EXTT1=
EXTT2=
EXTT3=
EXTT4=
EXTT5=
EXTT6=
EXTT7=
EXTT8=
EXTT9=
EXTT10=
EXTT11=
EXTT12=
EXTT13=
EXTT14=
EXTT15=
EXTT16=
EXTT17=
EXTT18=
PLAYORDER=
